Hanif_Deep_5_0_grf.mot
version=1
nRows=63
nColumns=19
inDegrees=yes
endheader
time	right_ground_force_vx	right_ground_force_vy	right_ground_force_vz	right_ground_force_px	right_ground_force_py	right_ground_force_pz	right_ground_torque_x	right_ground_torque_y	right_ground_torque_z	left_ground_force_vx	left_ground_force_vy	left_ground_force_vz	left_ground_force_px	left_ground_force_py	left_ground_force_pz	left_ground_torque_x	left_ground_torque_y	left_ground_torque_z
6.500000	-15.755000	290.661000	-32.669700	0.217848	0.000000	-1.433230	-21.548400	6.785840	4.361800	1.035000	298.397000	31.272800	0.244166	0.000000	-0.988394	25.444800	-12.025300	12.072800
6.505000	-16.245700	290.159000	-33.051000	0.217778	0.000000	-1.432220	-21.816500	6.689640	4.326920	0.963467	298.863000	30.829200	0.243881	0.000000	-0.987519	25.225600	-12.011500	12.023500
6.510000	-16.696000	289.450000	-33.427600	0.217529	0.000000	-1.432150	-21.795900	6.618870	4.234530	1.419290	298.614000	31.603800	0.244120	0.000000	-0.987959	25.319900	-12.017400	12.063300
6.515000	-17.097000	286.803000	-34.384300	0.218019	0.000000	-1.431490	-21.795200	6.500130	4.310130	1.086660	296.865000	31.153100	0.244026	0.000000	-0.988357	25.300700	-12.085000	11.955200
6.520000	-17.204400	288.120000	-34.860200	0.217759	0.000000	-1.431250	-21.963600	6.480150	4.251910	1.075710	297.173000	31.669000	0.243839	0.000000	-0.987701	25.132500	-12.054800	11.900900
6.525000	-17.346000	288.334000	-35.192600	0.218442	0.000000	-1.431700	-21.843900	6.337690	4.465720	1.231110	297.768000	31.639700	0.242992	0.000000	-0.987584	25.142700	-12.049500	11.677000
6.530000	-17.345600	288.299000	-35.625700	0.219271	0.000000	-1.431320	-21.945900	6.310540	4.700680	1.868840	297.387000	31.106300	0.243607	0.000000	-0.988089	25.237800	-12.096600	11.861400
6.535000	-17.220500	287.745000	-35.939300	0.218629	0.000000	-1.430550	-22.122100	6.270760	4.498420	2.123120	298.515000	31.339800	0.242300	0.000000	-0.987551	25.164400	-12.101700	11.514800
6.540000	-17.238800	286.109000	-36.627200	0.219955	0.000000	-1.429500	-22.295500	6.164930	4.844930	2.590870	295.760000	31.578400	0.243117	0.000000	-0.988080	25.069800	-12.229700	11.615400
6.545000	-17.646300	287.690000	-36.351000	0.219038	0.000000	-1.430200	-22.223700	6.129220	4.620880	3.186710	296.947000	31.226300	0.242729	0.000000	-0.987779	25.060700	-12.241600	11.569700
6.550000	-18.180900	287.476000	-36.601600	0.219453	0.000000	-1.430420	-22.150900	6.055130	4.736950	3.009570	296.498000	31.326500	0.242071	0.000000	-0.988050	25.108900	-12.238000	11.347300
6.555000	-18.018600	286.504000	-36.760800	0.220021	0.000000	-1.429710	-22.274000	5.986740	4.885950	2.937010	296.413000	31.409500	0.241789	0.000000	-0.988008	25.091800	-12.237400	11.255500
6.560000	-18.409600	286.840000	-36.788000	0.219213	0.000000	-1.430220	-22.161200	5.943830	4.660520	3.292900	295.608000	31.206100	0.241775	0.000000	-0.987959	24.996700	-12.174500	11.230800
6.565000	-18.401300	284.424000	-36.844100	0.219098	0.000000	-1.429920	-22.065000	5.899420	4.577610	3.460420	293.479000	31.152500	0.242152	0.000000	-0.988384	24.934000	-12.158400	11.251000
6.570000	-18.093000	284.284000	-36.694800	0.219184	0.000000	-1.429800	-22.075300	5.792550	4.618920	4.172310	293.336000	30.746400	0.240901	0.000000	-0.987677	24.689200	-12.133800	10.894600
6.575000	-17.982200	282.124000	-36.256700	0.219411	0.000000	-1.430090	-21.823700	5.744200	4.653250	4.851480	291.165000	30.804000	0.241046	0.000000	-0.988273	24.654000	-12.157800	10.842600
6.580000	-18.252100	280.567000	-35.759700	0.218931	0.000000	-1.429850	-21.777100	5.610380	4.505390	4.776240	291.375000	30.352200	0.240409	0.000000	-0.987545	24.461900	-12.140000	10.679300
6.585000	-18.122900	279.567000	-35.736400	0.218379	0.000000	-1.429970	-21.662900	5.545030	4.337090	4.776170	290.553000	30.702300	0.240557	0.000000	-0.987887	24.492200	-12.109100	10.678700
6.590000	-18.119300	279.604000	-35.841600	0.218331	0.000000	-1.430070	-21.640400	5.599430	4.315410	4.718580	289.361000	30.745500	0.240210	0.000000	-0.987385	24.247200	-12.096500	10.523500
6.595000	-17.908900	280.304000	-35.469500	0.217039	0.000000	-1.430430	-21.587500	5.600850	3.972460	4.671920	288.836000	30.966600	0.240021	0.000000	-0.987768	24.314500	-12.111500	10.436200
6.600000	-17.837700	279.312000	-35.518200	0.217459	0.000000	-1.429970	-21.638500	5.561090	4.075840	4.571310	288.800000	31.111600	0.240162	0.000000	-0.987272	24.172300	-12.084100	10.473100
6.605000	-17.429900	277.395000	-35.033200	0.217220	0.000000	-1.430720	-21.276400	5.562690	3.984660	4.441760	289.216000	31.756100	0.239268	0.000000	-0.986897	24.105300	-11.969900	10.220300
6.610000	-17.510100	277.094000	-34.402700	0.216719	0.000000	-1.430430	-21.344200	5.646530	3.838800	4.615880	287.746000	31.996900	0.239696	0.000000	-0.987718	24.211400	-11.999100	10.272900
6.615000	-16.796600	278.118000	-34.161900	0.216417	0.000000	-1.429870	-21.558100	5.633840	3.785690	4.573660	288.748000	32.620500	0.238853	0.000000	-0.986363	23.909300	-11.860500	10.065200
6.620000	-16.467400	278.199000	-33.553400	0.215908	0.000000	-1.430950	-21.252300	5.602490	3.665070	4.661830	286.535000	32.776200	0.239120	0.000000	-0.987504	24.046400	-11.927300	10.036700
6.625000	-16.254200	277.791000	-33.262400	0.215764	0.000000	-1.431110	-21.169500	5.559040	3.630390	4.319130	287.785000	32.728900	0.238797	0.000000	-0.987211	24.080400	-11.901100	9.997480
6.630000	-15.781900	276.801000	-32.941300	0.214756	0.000000	-1.431140	-21.084800	5.677980	3.325930	4.760770	287.467000	32.772800	0.238754	0.000000	-0.986951	23.964600	-11.846500	9.980380
6.635000	-14.660200	277.065000	-33.169800	0.214764	0.000000	-1.431350	-21.022200	5.790570	3.325070	5.206640	285.687000	32.576700	0.238963	0.000000	-0.987217	23.874500	-11.868900	9.972420
6.640000	-14.335600	275.742000	-32.758600	0.214145	0.000000	-1.430990	-21.016400	5.768410	3.142330	5.057670	286.554000	32.777300	0.237780	0.000000	-0.986618	23.781600	-11.822400	9.663710
6.645000	-13.986300	274.328000	-32.682300	0.214132	0.000000	-1.430570	-21.010900	5.657810	3.132230	5.447380	285.901000	32.590300	0.238340	0.000000	-0.987105	23.853300	-11.807600	9.810010
6.650000	-13.514200	274.839000	-32.845000	0.213792	0.000000	-1.430780	-20.984400	5.776870	3.032800	6.024420	286.466000	32.345000	0.237379	0.000000	-0.986982	23.846300	-11.790400	9.570270
6.655000	-13.633100	276.313000	-32.361400	0.213926	0.000000	-1.431120	-20.997500	5.664560	3.117630	5.919370	286.098000	32.199700	0.236972	0.000000	-0.986465	23.671400	-11.726900	9.447330
6.660000	-13.870600	277.953000	-32.712700	0.214399	0.000000	-1.431360	-21.059500	5.731460	3.261250	6.220870	286.375000	31.928500	0.236625	0.000000	-0.987151	23.880200	-11.748600	9.367480
6.665000	-14.074800	276.582000	-33.043200	0.213998	0.000000	-1.430440	-21.220200	5.742640	3.113820	6.274220	287.897000	32.069600	0.235734	0.000000	-0.986172	23.726200	-11.711300	9.168880
6.670000	-14.530900	274.865000	-32.273100	0.214059	0.000000	-1.430440	-21.098000	5.588420	3.132490	6.282340	285.994000	31.917400	0.235633	0.000000	-0.986802	23.744500	-11.782000	9.061580
6.675000	-14.305400	276.561000	-32.729800	0.213804	0.000000	-1.430990	-21.061900	5.498730	3.093410	6.400190	285.120000	31.938500	0.235717	0.000000	-0.986857	23.683000	-11.755200	9.054590
6.680000	-14.267400	275.711000	-32.943300	0.213262	0.000000	-1.431410	-20.884500	5.561890	2.916930	7.188780	286.330000	32.516900	0.235479	0.000000	-0.986497	23.659400	-11.642600	9.035580
6.685000	-13.720900	276.312000	-32.476200	0.213019	0.000000	-1.431320	-20.934800	5.429420	2.888380	6.505930	286.464000	32.408800	0.235346	0.000000	-0.986988	23.831700	-11.723400	8.990460
6.690000	-13.228700	274.320000	-32.547000	0.212546	0.000000	-1.430870	-20.897600	5.401040	2.731430	6.877470	285.643000	32.830200	0.235222	0.000000	-0.987148	23.796100	-11.705100	8.914900
6.695000	-13.172600	274.684000	-32.758600	0.212941	0.000000	-1.430920	-20.910300	5.426580	2.840170	6.896570	287.182000	32.916100	0.235099	0.000000	-0.986741	23.810700	-11.646700	8.943610
6.700000	-12.952600	275.186000	-32.339600	0.211709	0.000000	-1.431040	-20.909200	5.396400	2.518360	6.922880	287.848000	32.938200	0.234493	0.000000	-0.986703	23.856100	-11.595700	8.798210
6.705000	-13.176000	274.071000	-32.786900	0.212464	0.000000	-1.431010	-20.843900	5.462150	2.693350	6.531970	287.451000	33.009600	0.233955	0.000000	-0.987063	23.939300	-11.553700	8.625370
6.710000	-12.999900	274.917000	-32.735300	0.212344	0.000000	-1.430090	-21.147700	5.339530	2.688260	7.144170	288.916000	33.232200	0.234821	0.000000	-0.985979	23.730400	-11.600900	8.927340
6.715000	-12.865200	274.308000	-32.562600	0.211828	0.000000	-1.430130	-21.089800	5.313890	2.543590	6.733980	284.752000	33.303900	0.234310	0.000000	-0.987208	23.745800	-11.539600	8.620050
6.720000	-12.955300	273.936000	-32.529200	0.211801	0.000000	-1.430450	-20.970400	5.232440	2.540660	6.997070	286.093000	33.235600	0.234266	0.000000	-0.986722	23.713400	-11.489100	8.668960
6.725000	-12.942900	274.538000	-33.104800	0.211841	0.000000	-1.430260	-21.064800	5.184830	2.554560	6.785100	287.466000	33.537700	0.233799	0.000000	-0.985836	23.583400	-11.406100	8.583140
6.730000	-12.696100	273.413000	-33.055100	0.211649	0.000000	-1.429980	-21.052500	5.211060	2.484880	7.235460	286.203000	33.166300	0.234512	0.000000	-0.986722	23.714600	-11.516800	8.745640
6.735000	-12.816700	273.282000	-33.051400	0.211985	0.000000	-1.429640	-21.135800	5.110720	2.586680	7.362820	286.604000	33.578400	0.234000	0.000000	-0.986548	23.698600	-11.360500	8.619370
6.740000	-12.699000	273.271000	-33.056700	0.211964	0.000000	-1.429330	-21.218200	5.142440	2.577430	6.813210	286.842000	33.148800	0.233960	0.000000	-0.987354	23.966300	-11.388800	8.621390
6.745000	-12.847100	273.419000	-32.991400	0.212095	0.000000	-1.429780	-21.104600	5.068110	2.625380	6.881620	288.570000	33.749200	0.233826	0.000000	-0.986070	23.740000	-11.417600	8.626230
6.750000	-13.261900	274.162000	-33.644500	0.211531	0.000000	-1.430190	-21.058900	5.078580	2.462340	6.643380	287.592000	33.668000	0.234112	0.000000	-0.986980	23.929400	-11.347600	8.681770
6.755000	-13.041200	273.546000	-33.469600	0.211520	0.000000	-1.430010	-21.051400	4.960800	2.470230	6.723340	288.674000	33.626700	0.233049	0.000000	-0.986675	23.931000	-11.281000	8.421270
6.760000	-13.078300	273.902000	-33.532800	0.211239	0.000000	-1.429150	-21.317800	5.006070	2.388580	6.656490	289.808000	34.114700	0.233919	0.000000	-0.986731	24.044600	-11.354600	8.695290
6.765000	-12.715800	275.230000	-34.239100	0.211195	0.000000	-1.429160	-21.405900	4.953930	2.391020	6.735270	289.426000	33.903500	0.233523	0.000000	-0.986993	24.086600	-11.286000	8.579800
6.770000	-12.616600	276.224000	-33.722000	0.210673	0.000000	-1.429400	-21.411500	4.900950	2.275780	6.828980	288.199000	33.784700	0.234258	0.000000	-0.986865	23.941200	-11.383100	8.741580
6.775000	-12.803700	275.001000	-34.233000	0.211342	0.000000	-1.429760	-21.220700	4.860820	2.440880	6.940840	288.315000	33.774800	0.233561	0.000000	-0.986378	23.807400	-11.335900	8.548850
6.780000	-12.910300	274.744000	-33.781500	0.211546	0.000000	-1.428760	-21.475700	4.833880	2.503100	6.620350	289.061000	33.996400	0.233678	0.000000	-0.987017	24.065300	-11.344700	8.600890
6.785000	-12.925600	275.483000	-34.112100	0.211021	0.000000	-1.428910	-21.495700	4.873590	2.355710	6.636300	288.813000	33.694000	0.233534	0.000000	-0.986209	23.810900	-11.296500	8.563320
6.790000	-12.836500	274.116000	-34.333100	0.211373	0.000000	-1.428090	-21.604100	4.708450	2.451350	6.343920	287.464000	33.739500	0.234175	0.000000	-0.986678	23.842300	-11.297200	8.695730
6.795000	-12.932500	274.125000	-34.629900	0.210929	0.000000	-1.428960	-21.373900	4.780330	2.313950	6.277730	287.949000	33.766700	0.233844	0.000000	-0.986237	23.757700	-11.307200	8.614730
6.800000	-12.456000	274.841000	-34.642900	0.211024	0.000000	-1.428740	-21.474400	4.731190	2.360390	5.655940	288.465000	34.124400	0.234118	0.000000	-0.986254	23.825700	-11.334900	8.694430
6.805000	-12.725600	274.344000	-34.669700	0.210879	0.000000	-1.427980	-21.658100	4.838890	2.295210	5.590380	290.178000	34.001100	0.233872	0.000000	-0.986113	23.930600	-11.319300	8.691990
6.810000	-12.985800	275.222000	-35.206300	0.211011	0.000000	-1.428920	-21.465300	4.692040	2.351770	5.128200	288.352000	34.298400	0.234877	0.000000	-0.986551	23.918800	-11.366300	8.898160
